<svg width="40" height="41" viewBox="0 0 40 41" fill="none" xmlns="http://www.w3.org/2000/svg">
<g clip-path="url(#clip0_1_52)">
<path d="M20.4166 40.8333C31.2322 40.8333 40 32.0655 40 21.25C40 10.4344 31.2322 1.66663 20.4166 1.66663C9.60107 1.66663 0.833313 10.4344 0.833313 21.25C0.833313 32.0655 9.60107 40.8333 20.4166 40.8333Z" fill="#EFF9FF"/>
<path d="M17.5 12.5C20.7217 12.5 23.3334 9.88837 23.3334 6.66671C23.3334 3.44505 20.7217 0.833374 17.5 0.833374C14.2784 0.833374 11.6667 3.44505 11.6667 6.66671C11.6667 9.88837 14.2784 12.5 17.5 12.5Z" stroke="#0962E8" stroke-linecap="round" stroke-linejoin="round"/>
<path d="M0.833313 31.6667C0.833313 24.3029 7.54906 18.3334 15.8333 18.3334" stroke="#0962E8" stroke-linecap="round" stroke-linejoin="round"/>
<path d="M24.0416 20.8334C22.2697 20.8334 20.8333 22.5072 20.8333 24.572C20.8333 28.3106 24.625 31.7095 26.6666 32.5C28.7083 31.7095 32.5 28.3106 32.5 24.572C32.5 22.5072 31.0636 20.8334 29.2916 20.8334C28.2066 20.8334 27.2472 21.4611 26.6666 22.4219C26.0861 21.4611 25.1267 20.8334 24.0416 20.8334Z" stroke="#0962E8" stroke-linecap="round" stroke-linejoin="round"/>
</g>
<defs>
<clipPath id="clip0_1_52">
<rect width="40" height="40.8333" fill="white"/>
</clipPath>
</defs>
</svg>
