<svg width="40" height="40" viewBox="0 0 40 40" fill="none" xmlns="http://www.w3.org/2000/svg">
<g clip-path="url(#clip0_1_42)">
<path d="M20.4167 40C31.2323 40 40 31.2323 40 20.4167C40 9.60113 31.2323 0.833374 20.4167 0.833374C9.6011 0.833374 0.833344 9.60113 0.833344 20.4167C0.833344 31.2323 9.6011 40 20.4167 40Z" fill="#EFF9FF"/>
<path d="M9.16668 9.16671C13.769 9.16671 17.5 7.30122 17.5 5.00004C17.5 2.69886 13.769 0.833374 9.16668 0.833374C4.5643 0.833374 0.833344 2.69886 0.833344 5.00004C0.833344 7.30122 4.5643 9.16671 9.16668 9.16671Z" stroke="#0962E8" stroke-linecap="round" stroke-linejoin="round"/>
<path d="M0.833344 5C0.833344 5 0.833344 8.53217 0.833344 10.8333C0.833344 13.1345 4.5643 15 9.16668 15C13.769 15 17.5 13.1345 17.5 10.8333C17.5 9.47033 17.5 5 17.5 5" stroke="#0962E8" stroke-linecap="round" stroke-linejoin="round"/>
<path d="M0.833344 10.8334C0.833344 10.8334 0.833344 14.3655 0.833344 16.6667C0.833344 18.9679 4.5643 20.8334 9.16668 20.8334C13.769 20.8334 17.5 18.9679 17.5 16.6667C17.5 15.3037 17.5 10.8334 17.5 10.8334" stroke="#0962E8" stroke-linecap="round" stroke-linejoin="round"/>
<path d="M0.833344 16.6666C0.833344 16.6666 0.833344 20.1988 0.833344 22.5C0.833344 24.8011 4.5643 26.6666 9.16668 26.6666C13.769 26.6666 17.5 24.8011 17.5 22.5C17.5 21.137 17.5 16.6666 17.5 16.6666" stroke="#0962E8" stroke-linecap="round" stroke-linejoin="round"/>
<path d="M0.833344 22.5C0.833344 22.5 0.833344 26.0322 0.833344 28.3333C0.833344 30.6345 4.5643 32.5 9.16668 32.5C13.769 32.5 17.5 30.6345 17.5 28.3333C17.5 26.9703 17.5 22.5 17.5 22.5" stroke="#0962E8" stroke-linecap="round" stroke-linejoin="round"/>
<path d="M25.8333 20.8333C30.4357 20.8333 34.1667 18.9678 34.1667 16.6667C34.1667 14.3655 30.4357 12.5 25.8333 12.5C21.231 12.5 17.5 14.3655 17.5 16.6667C17.5 18.9678 21.231 20.8333 25.8333 20.8333Z" stroke="#0962E8" stroke-linecap="round" stroke-linejoin="round"/>
<path d="M17.5 16.6666C17.5 16.6666 17.5 20.1988 17.5 22.5C17.5 24.8011 21.231 26.6666 25.8333 26.6666C30.4357 26.6666 34.1667 24.8011 34.1667 22.5C34.1667 21.137 34.1667 16.6666 34.1667 16.6666" stroke="#0962E8" stroke-linecap="round" stroke-linejoin="round"/>
<path d="M17.5 22.5C17.5 22.5 17.5 26.0322 17.5 28.3333C17.5 30.6345 21.231 32.5 25.8333 32.5C30.4357 32.5 34.1667 30.6345 34.1667 28.3333C34.1667 26.9703 34.1667 22.5 34.1667 22.5" stroke="#0962E8" stroke-linecap="round" stroke-linejoin="round"/>
</g>
<defs>
<clipPath id="clip0_1_42">
<rect width="40" height="40" fill="white"/>
</clipPath>
</defs>
</svg>
