<svg width="40" height="38" viewBox="0 0 40 38" fill="none" xmlns="http://www.w3.org/2000/svg">
<g clip-path="url(#clip0_1_57)">
<path d="M21.2 37.6C31.583 37.6 40 29.183 40 18.8C40 8.41705 31.583 0 21.2 0C10.8171 0 2.40002 8.41705 2.40002 18.8C2.40002 29.183 10.8171 37.6 21.2 37.6Z" fill="#EFF9FF"/>
<path d="M16.8 8.80005C19.0091 8.80005 20.8 7.00917 20.8 4.80005C20.8 2.59091 19.0091 0.800049 16.8 0.800049C14.5909 0.800049 12.8 2.59091 12.8 4.80005C12.8 7.00917 14.5909 8.80005 16.8 8.80005Z" stroke="#0962E8" stroke-linecap="round" stroke-linejoin="round"/>
<path d="M19.2 13.6H14.4C13.6571 13.6 13.2856 13.6 12.9727 13.6308C9.93409 13.9301 7.53009 16.3341 7.23081 19.3727C7.20001 19.6856 7.20001 20.057 7.20001 20.8H26.4C26.4 20.057 26.4 19.6856 26.3692 19.3727C26.0699 16.3341 23.6659 13.9301 20.6273 13.6308C20.3144 13.6 19.943 13.6 19.2 13.6Z" stroke="#0962E8" stroke-linecap="round" stroke-linejoin="round"/>
<path d="M30.4 19.0273C31.9213 20.0067 32.8 21.1625 32.8 22.4004C32.8 25.935 25.6365 28.8004 16.8 28.8004C7.96343 28.8004 0.799988 25.935 0.799988 22.4004C0.799988 21.1625 1.6786 20.0067 3.19999 19.0273" stroke="#0962E8" stroke-linecap="round" stroke-linejoin="round"/>
<path d="M12.8 24.8L16.8 28.8L12.8 32.8001" stroke="#0962E8" stroke-linecap="round" stroke-linejoin="round"/>
</g>
<defs>
<clipPath id="clip0_1_57">
<rect width="40" height="37.6" fill="white"/>
</clipPath>
</defs>
</svg>
